<?xml version="1.0" standalone="no"?>
<!DOCTYPE svg PUBLIC "-//W3C//DTD SVG 1.1//EN" "http://www.w3.org/Graphics/SVG/1.1/DTD/svg11.dtd" >
<svg xmlns="http://www.w3.org/2000/svg" xmlns:svg="http://www.w3.org/2000/svg" xmlns:xlink="http://www.w3.org/1999/xlink" viewBox="0 0 2048 2048"><path d="M467.78 1114.26V1694.88H719.61V1134.19ZM1214.36 84.18L1613.83 97.26Q1566.74 119.62 1524.56 215.77L1482.73 593.23H1634.89L1778.25 489.02L2057.87 628.41Q1990.67 696.89 2012.25 665.94Q1954.1 665.05 1923.21 712.78Q1922.03 998.8 1879.76 1179.69Q1940.81 1419.16 1912.67 1600.13Q1879.63 1646.74 1838.71 1764.37Q1833.61 1844.58 1795.21 1859.2Q1681.97 2005.22 1477.51 1972.2Q1501.53 1882.01 1514.55 1866.06Q1482.07 1825.39 1455.84 1804.4Q1444.92 1705.83 1322.33 1684.82V1681.62Q1305.05 1704.59 1380.11 1677.65Q1430.57 1667.01 1509.23 1695.55Q1552.63 1688.75 1577.93 1661.77Q1612.01 1654.98 1591.41 1496.46Q1641.86 1409.07 1648.42 1205.91Q1670.4 1025.7 1660.62 647.76H1522.82Q1491.31 861.85 1477.84 1068.01Q1466.14 1262.59 1411.25 1427.06Q1309.37 1550.19 1208.65 1767.49Q1058.71 1893.2 834.95 1976.31L856.52 1932.86Q884.17 1940.95 883.7 1886.55Q927.57 1825.84 992.02 1807.09Q947.91 1788.48 908.53 1805.34Q825.86 1873.37 749.94 1867.59H678.78V1756.33H496.27V1876.67Q436.93 1908.48 421.18 1901.17Q324.55 1899.52 265.86 1922.24H175.32V962.48L506.74 1112.15H677.94L857.23 956.38L1098.02 1160.85Q1053.88 1178.47 1090.25 1186.16Q1025.5 1236.61 977.85 1167.83V1777.94Q1087.02 1589.52 1116.21 1430.69Q1188.34 1269.82 1161.65 1045.43Q1214.83 860.51 1229.35 655.49H1057L1019.94 593.11H1249.02ZM88.07 217.47H769.81L934.83 50.08L1166.71 296.79Q1132.65 340.53 1048.48 311.72Q1021.53 548.07 1036.83 647.86Q1025.24 758.35 980.91 779.35Q958.6 898.9 893.51 911.07Q861.55 998.72 816.37 969.45Q767.53 1005.51 645.84 1016.47Q657.81 960.93 706.38 837.81Q669.26 855.4 638.61 793.71Q600.83 772.02 587.27 789.75Q572.43 765.42 514.1 724.6V673.49Q554.86 677.66 587.57 723.88Q649.08 702.47 692.24 668.56Q735.03 693.39 757.15 668.42Q779.95 656.4 801.17 557.85Q805.92 492.5 790.52 252.61H601.25Q623.34 439.04 549.53 533.92Q556.6 604.94 458.43 700.81Q415.54 833.78 316.88 914.3Q240.5 1016.35 96.14 1082.55L64.58 1056.11Q136.54 915.35 208.77 814.55Q248.27 676.42 282.22 518.55Q294.11 393.03 261.8 287.68H93.07Z" fill="black"></path></svg>