<?xml version="1.0" standalone="no"?>
<!DOCTYPE svg PUBLIC "-//W3C//DTD SVG 1.1//EN" "http://www.w3.org/Graphics/SVG/1.1/DTD/svg11.dtd" >
<svg xmlns="http://www.w3.org/2000/svg" xmlns:svg="http://www.w3.org/2000/svg" xmlns:xlink="http://www.w3.org/1999/xlink" viewBox="0 0 2048 2048"><path d="M444.0 1150.5V1674.5H704.0V1150.5ZM1214.0 64.5 1585.0 97.5Q1579.0 145.5 1509.0 157.5L1505.0 581.5H1622.0L1769.0 433.5L2009.0 646.5Q1997.0 660.5 1975.5 671.0Q1954.0 681.5 1919.0 687.5Q1913.0 1000.5 1905.0 1211.0Q1897.0 1421.5 1881.0 1552.5Q1865.0 1683.5 1837.5 1757.5Q1810.0 1831.5 1767.0 1873.5Q1661.0 1976.5 1481.0 1973.5Q1481.0 1904.5 1474.5 1857.5Q1468.0 1810.5 1448.0 1783.5Q1407.0 1721.5 1294.0 1689.5V1666.5Q1339.0 1669.5 1397.5 1672.0Q1456.0 1674.5 1487.0 1674.5Q1527.0 1674.5 1554.0 1650.5Q1585.0 1621.5 1603.0 1509.5Q1621.0 1397.5 1630.0 1184.5Q1639.0 971.5 1644.0 638.5H1503.0Q1496.0 856.5 1469.5 1050.0Q1443.0 1243.5 1375.5 1412.5Q1308.0 1581.5 1182.0 1724.5Q1056.0 1867.5 850.0 1983.5L829.0 1957.5Q868.0 1915.5 900.5 1872.5Q933.0 1829.5 962.0 1783.5Q933.0 1801.5 870.0 1822.0Q807.0 1842.5 751.0 1842.5H704.0V1732.5H444.0V1852.5Q444.0 1866.5 386.0 1897.5Q328.0 1928.5 223.0 1928.5H174.0V982.5L471.0 1093.5H684.0L809.0 957.5L1063.0 1152.5Q1054.0 1163.5 1033.5 1176.5Q1013.0 1189.5 981.0 1195.5V1754.5Q1077.0 1596.5 1126.5 1421.5Q1176.0 1246.5 1194.0 1051.5Q1212.0 856.5 1214.0 638.5H1065.0L1046.0 581.5H1216.0ZM55.0 206.5H751.0L889.0 77.5L1126.0 271.5Q1104.0 300.5 1046.0 308.5Q1039.0 506.5 1025.0 625.5Q1011.0 744.5 982.5 809.0Q954.0 873.5 905.0 908.5Q857.0 941.5 798.0 958.0Q739.0 974.5 659.0 974.5Q659.0 912.5 653.0 866.5Q647.0 820.5 629.0 794.5Q610.0 766.5 582.5 746.0Q555.0 725.5 506.0 712.5V689.5Q538.0 692.5 585.5 694.0Q633.0 695.5 657.0 695.5Q693.0 695.5 711.0 681.5Q735.0 661.5 748.5 563.0Q762.0 464.5 770.0 263.5H586.0Q578.0 381.5 553.5 491.0Q529.0 600.5 473.5 699.0Q418.0 797.5 318.0 883.0Q218.0 968.5 59.0 1037.5L39.0 1013.5Q159.0 900.5 212.0 779.0Q265.0 657.5 279.0 528.0Q293.0 398.5 295.0 263.5H74.0Z" fill="black"></path></svg>